<?xml version="1.0"?>
<svg width="18" height="19" xmlns="http://www.w3.org/2000/svg" xmlns:svg="http://www.w3.org/2000/svg">
 <g class="layer">
  <title>Layer 1</title>
  <path d="m2.46,17.86c0.06,0.66 0.61,1.14 1.28,1.14l10.52,0c0.67,0 1.22,-0.5 1.28,-1.14l1.18,-12.16l-15.44,0l1.18,12.16z" fill="#ff0000" id="svg_1"/>
  <path d="m16.72,1.9l-5.14,0l0,-0.64c0,-0.7 -0.57,-1.26 -1.28,-1.26l-2.58,0c-0.71,0 -1.28,0.56 -1.28,1.26l0,0.64l-5.16,0c-0.71,0 -1.28,0.56 -1.28,1.26c0,0.7 0.57,1.26 1.28,1.26l15.44,0c0.71,0 1.28,-0.56 1.28,-1.26c0,-0.7 -0.57,-1.26 -1.28,-1.26z" fill="#ff0000" id="svg_2"/>
 </g>
</svg>